<svg xmlns="http://www.w3.org/2000/svg" width="1161" height="237" viewBox="0 0 1160.843 236.697"><path d="M6.096 236.305c-2.48-.127-4.795-.385-5.148-.574-.626-.335-.645-.78-.858-19.63L.553 21.096c.432-.267 91.273-.296 92.97-.03l1.64.257 1.024 4.696c3.87 17.737 16.656 84.117 16.656 86.467 0 1.544.584 1.085 1.133-.892l.647-2.26c.075-.23 3.097-15.855 6.715-34.72l10.26-52.983.224-1.083 47.23.236 47.3.3c.038.035.146 37.28.24 82.767l.342 107.744.17 25.04h-34.57c-32.7 0-34.572-.03-34.595-.56-.014-.308-.144-22.52-.3-49.36l-.54-49.695c-.235-.763-.57.135-2.26 6.08l-12.6 46.3-4.606 17.244-23.996-.226-24.064-.294c-.037-.037-2.75-10-6.025-22.137l-12.08-43.9c-.36-1.276-.754-2.32-.873-2.32-.403 0-.64 22.398-.64 60.72v38.16l-29.68-.05-34.187-.28zm241.787-78.7v-79.04h75.2v158.08h-75.2zm96-28.966V20.56l45.52.174c44.96.172 55.453.394 63.914 1.353 36.953 4.19 58.58 19.205 67.837 47.098 3.285 9.9 3.288 9.952 3.113 66.17-.152 48.87-.062 46.612-2.136 53.73-1.747 5.996-4.193 11.616-7.1 16.287-9.006 14.52-23.85 23.717-45.718 28.324-12.37 2.606-13.744 2.66-73.52 2.84l-51.92.158zm90.08 49.414c4.56-.484 6.36-1.112 8.312-2.896 2.814-2.572 2.756-2.287 3.104-15.275.168-6.268.24-24.14.162-39.717l-.62-31.04c-.982-5.624-2.325-7.196-7.237-8.47-2.167-.562-8.45-1.107-12.923-1.122l-2.8-.01v99.272l4.56-.22c2.508-.12 5.856-.357 7.44-.525zm108 10.805l.213-107.84.213-60.053h77.896l.192 27.92.357 107.84.165 79.92h-79.035zm91.548 41.787l24.898-102.64 25.66-104.53.623-2.13 1.996-.263c2.502-.33 108.1-.215 108.435.117.13.134 2.2 8.45 4.6 18.483l42.552 177.44 4.225 18.45c-.73.73-4.65.85-31.737.98-28.23.134-51.158-.202-51.682-.757-.14-.15-.563-2.43-.938-5.07-1.68-11.825-3.938-25.97-4.386-27.47-.17-.566-.865-.584-17.345-.436-9.443.085-17.673.284-18.29.443-1.094.282-1.126.336-1.384 2.356-.504 3.942-3.74 25.44-4.25 28.227l-.512 2.8H632zm114.35-85.512c.75-.285.82-.472.82-2.14 0-3.32-8.5-60.876-9.076-61.45-.19-.19-2.284 13.083-6.122 38.783l-3.68 24.88c-.003.36 17.102.29 18.058-.072zm110.102-3.768l.364-107.84.2-12.56h78.005l.046 27.76.24 75.28.194 47.52 66.08.163v64.957H857.8zm159.047-12.16l.328-107.84c.1-.32 8.075-.385 39.094-.32l38.97.08.193 43.68.287 106.88h64.96v64.96h-144.036z" fill="#333"/><path d="M279.883 68.76l-9.6-1.557c-6.428-1.6-11.182-4.263-15.04-8.395-8.353-8.944-10.49-27.375-4.815-41.545 3.928-9.81 11.478-15.006 24.495-16.854 1.745-.248 6.16-.41 11.2-.41 9.385.001 12.777.464 18.584 2.54 9.17 3.278 15.13 9.633 17.417 18.58 1.807 7.063 1.482 22.05-.61 28.077-1.567 4.52-4.746 9.115-8.162 11.8-4.393 3.454-10.446 6.015-17 7.2-2.76.495-13.86.88-16.48.572z" fill="#e2262f"/></svg>